<svg width="29" height="28" viewBox="0 0 29 28" fill="none" xmlns="http://www.w3.org/2000/svg">
<path fill-rule="evenodd" clip-rule="evenodd" d="M11.7374 1.38099C12.5384 1.38099 13.3256 1.46109 14.0837 1.61576C14.4427 1.68865 14.758 1.90114 14.9602 2.20648C15.1625 2.51183 15.2352 2.88501 15.1623 3.24395C15.0894 3.60289 14.8769 3.91817 14.5716 4.12044C14.2662 4.32271 13.893 4.39539 13.5341 4.32251C11.7947 3.96768 9.98921 4.13655 8.3458 4.80777C6.70239 5.47899 5.2949 6.62242 4.30128 8.09349C3.30766 9.56456 2.77253 11.2972 2.76355 13.0724C2.75456 14.8476 3.27213 16.5855 4.25081 18.0666C5.22949 19.5476 6.62533 20.7053 8.26186 21.3931C9.8984 22.0809 11.7021 22.268 13.445 21.9308C15.1879 21.5936 16.7916 20.7472 18.0535 19.4986C19.3154 18.25 20.1787 16.6553 20.5344 14.9161C20.5705 14.7384 20.6412 14.5695 20.7425 14.4191C20.8439 14.2687 20.9739 14.1398 21.1251 14.0396C21.2763 13.9395 21.4457 13.8701 21.6237 13.8354C21.8017 13.8007 21.9848 13.8015 22.1625 13.8375C22.3403 13.8736 22.5092 13.9444 22.6595 14.0457C22.8099 14.1471 22.9389 14.2771 23.039 14.4283C23.1392 14.5795 23.2086 14.7489 23.2433 14.9269C23.2779 15.1049 23.2772 15.288 23.2411 15.4657C22.9047 17.1127 22.2186 18.6683 21.229 20.0272L20.9569 20.3862L26.0003 25.4296C26.2506 25.6775 26.3967 26.0118 26.4087 26.3639C26.4206 26.716 26.2975 27.0594 26.0646 27.3237C25.8317 27.5881 25.5065 27.7534 25.1557 27.7859C24.8049 27.8183 24.4549 27.7154 24.1774 27.4983L24.0476 27.3823L19.0042 22.3389C17.5341 23.4975 15.8082 24.2878 13.9705 24.6437C12.1329 24.9996 10.2367 24.9109 8.44034 24.385C6.64393 23.8591 4.99934 22.9112 3.64377 21.6204C2.2882 20.3297 1.26096 18.7334 0.647762 16.9649C0.0345611 15.1964 -0.146822 13.3069 0.118745 11.454C0.384312 9.60114 1.08913 7.83864 2.17439 6.31356C3.25965 4.78848 4.69389 3.54504 6.35745 2.68699C8.021 1.82894 9.86563 1.38115 11.7374 1.38099ZM23.4759 0C23.7342 -5.754e-07 23.9874 0.0724717 24.2066 0.209181C24.4259 0.34589 24.6023 0.541353 24.716 0.773356L24.7823 0.934932L24.9618 1.45695C25.1513 2.01236 25.4566 2.52118 25.8575 2.94972C26.2584 3.37826 26.7458 3.71674 27.2874 3.94273L27.5429 4.0394L28.0649 4.21755C28.3234 4.30574 28.55 4.46861 28.7159 4.68556C28.8819 4.90252 28.9797 5.1638 28.9972 5.43638C29.0146 5.70896 28.9508 5.9806 28.8139 6.21693C28.677 6.45326 28.473 6.64368 28.2279 6.7641L28.0649 6.83039L27.5429 7.00992C26.9875 7.19939 26.4787 7.5047 26.0501 7.90562C25.6216 8.30654 25.2831 8.79393 25.0571 9.33551L24.9604 9.59099L24.7823 10.113C24.6939 10.3714 24.531 10.5979 24.3139 10.7637C24.0969 10.9295 23.8356 11.0272 23.563 11.0445C23.2904 11.0618 23.0188 10.9979 22.7826 10.8608C22.5464 10.7238 22.356 10.5198 22.2357 10.2746L22.1695 10.113L21.9899 9.59099C21.8005 9.03558 21.4951 8.52676 21.0942 8.09822C20.6933 7.66968 20.2059 7.3312 19.6643 7.10521L19.4089 7.00854L18.8868 6.83039C18.6283 6.7422 18.4018 6.57933 18.2358 6.36238C18.0699 6.14542 17.972 5.88414 17.9546 5.61156C17.9371 5.33898 18.0009 5.06734 18.1378 4.83101C18.2748 4.59468 18.4787 4.40426 18.7239 4.28384L18.8868 4.21755L19.4089 4.03802C19.9643 3.84855 20.4731 3.54324 20.9016 3.14232C21.3302 2.7414 21.6686 2.25401 21.8946 1.71243L21.9913 1.45695L22.1695 0.934932C22.2625 0.662306 22.4385 0.425601 22.6727 0.257955C22.907 0.0903089 23.1878 0.000114936 23.4759 0ZM23.4759 4.41365C23.1492 4.82477 22.7767 5.19729 22.3656 5.52397C22.778 5.8508 23.1481 6.22091 23.4759 6.63429C23.8027 6.22183 24.1728 5.85173 24.5862 5.52397C24.1751 5.19729 23.8026 4.82477 23.4759 4.41365Z" fill="white"/>
</svg>
